<svg xmlns="http://www.w3.org/2000/svg" viewBox="0 0 320 320"><g><circle cx="160" cy="160" r="160" strokeWidth="0" fill="#f0f0f0"/><path fill="#ff9811" strokeWidth="0" d="M160 0C96.57 0 41.76 36.91 15.88 90.44h288.25C278.24 36.91 223.43 0 160 0Z"/><path fill="#6da544" strokeWidth="0" d="M160 320c63.43 0 118.24-36.92 144.12-90.43H15.88C41.76 283.09 96.57 320 160 320Z"/><circle cx="160" cy="160" r="55.65" strokeWidth="0" fill="#0052b4"/><circle cx="160" cy="160" r="34.78"  strokeWidth="0" fill="#f0f0f0" transform="rotate(-80.78 160.012 160.001)"/><path d="m160 117.08 10.73 24.33 26.44-2.87L181.46 160l15.71 21.46-26.44-2.87L160 202.92l-10.73-24.33-26.44 2.87L138.54 160l-15.71-21.46 26.44 2.87L160 117.08z"  strokeWidth="0" fill="#0052b4"/></g></svg>