<svg xmlns="http://www.w3.org/2000/svg" viewbox="0 0 37 37"><path d="M 1.111 18.587 C 1.111 8.922 8.946 1.087 18.611 1.087 C 28.276 1.087 36.111 8.922 36.111 18.587 C 36.111 28.252 28.276 36.087 18.611 36.087 C 8.946 36.087 1.111 28.252 1.111 18.587 Z" fill="rgb(240,240,240)"></path><path d="M 17.85 18.587 L 36.111 18.587 C 36.111 17.007 35.9 15.477 35.508 14.021 L 17.85 14.021 Z M 17.85 9.456 L 33.542 9.456 C 32.472 7.711 31.105 6.166 29.504 4.891 L 17.85 4.891 Z M 18.611 36.087 C 22.729 36.087 26.515 34.663 29.504 32.282 L 7.717 32.282 C 10.706 34.663 14.492 36.087 18.611 36.087 Z M 3.679 27.717 L 33.542 27.717 C 34.412 26.297 35.074 24.76 35.508 23.152 L 1.713 23.152 C 2.147 24.76 2.809 26.297 3.679 27.717 Z" fill="rgb(216,0,39)"></path><path d="M 9.217 3.82 L 10.812 3.82 L 9.328 4.897 L 9.895 6.641 L 8.412 5.563 L 6.928 6.641 L 7.418 5.134 C 6.109 6.225 4.966 7.499 4.023 8.917 L 4.534 8.917 L 3.59 9.603 C 3.443 9.849 3.302 10.098 3.167 10.351 L 3.618 11.739 L 2.777 11.128 C 2.567 11.572 2.376 12.025 2.204 12.486 L 2.701 14.015 L 4.535 14.015 L 3.051 15.093 L 3.618 16.837 L 2.134 15.759 L 1.246 16.405 C 1.156 17.128 1.111 17.857 1.111 18.587 L 18.61 18.587 L 18.61 1.087 C 15.154 1.087 11.931 2.089 9.217 3.82 Z M 9.895 16.837 L 8.412 15.759 L 6.928 16.837 L 7.495 15.093 L 6.012 14.015 L 7.845 14.015 L 8.412 12.271 L 8.978 14.015 L 10.812 14.015 L 9.328 15.093 Z M 9.328 9.995 L 9.895 11.739 L 8.412 10.661 L 6.928 11.739 L 7.495 9.995 L 6.012 8.917 L 7.845 8.917 L 8.412 7.174 L 8.978 8.917 L 10.812 8.917 Z M 16.172 16.837 L 14.689 15.759 L 13.206 16.837 L 13.772 15.093 L 12.289 14.015 L 14.122 14.015 L 14.689 12.271 L 15.256 14.015 L 17.089 14.015 L 15.606 15.093 Z M 15.606 9.995 L 16.172 11.739 L 14.689 10.661 L 13.205 11.739 L 13.772 9.995 L 12.289 8.917 L 14.122 8.917 L 14.689 7.174 L 15.255 8.917 L 17.089 8.917 Z M 15.606 4.897 L 16.172 6.641 L 14.689 5.563 L 13.205 6.641 L 13.772 4.897 L 12.289 3.82 L 14.122 3.82 L 14.689 2.076 L 15.255 3.82 L 17.089 3.82 Z" fill="rgb(0,82,180)"></path></svg>