<svg xmlns="http://www.w3.org/2000/svg" viewBox="0 0 24 24"><path d="M 24 12.02 C 24 18.627 18.627 23.983 12 23.983 C 5.373 23.983 0 18.627 0 12.02 C 0 12.023 12 0.059 12 0.058 C 18.627 0.058 24 5.414 24 12.02 Z" fill="rgb(0,82,180)"></path><path d="M 12 0.058 L 11.998 0.058 M 11.968 12.02 L 12 12.02 L 12 11.988 Z" fill="rgb(240,240,240)"></path><path d="M 12 6.299 L 12 0.058 L 11.998 0.058 C 5.372 0.059 0 5.414 0 12.02 L 6.261 12.02 L 6.261 8.506 L 9.786 12.02 L 11.968 12.02 L 12 11.988 L 12 9.814 L 8.474 6.299 Z" fill="rgb(240,240,240)"></path><path d="M 6.071 1.618 C 4.192 2.686 2.636 4.237 1.565 6.11 L 1.565 12.02 L 4.696 12.02 L 4.696 4.739 L 12 4.739 L 12 1.618 L 6.071 1.618 Z" fill="rgb(216,0,39)"></path><path d="M 12 10.549 L 7.737 6.299 L 6.261 6.299 L 12 12.02 Z" fill="rgb(216,0,39)"></path><path d="M 7.237 14.101 L 7.896 15.474 L 9.383 15.131 L 8.717 16.5 L 9.913 17.446 L 8.424 17.78 L 8.428 19.302 L 7.237 18.35 L 6.046 19.302 L 6.051 17.78 L 4.561 17.446 L 5.758 16.5 L 5.092 15.131 L 6.579 15.474 Z M 17.966 16.701 L 18.296 17.388 L 19.039 17.216 L 18.706 17.901 L 19.304 18.374 L 18.56 18.541 L 18.562 19.302 L 17.966 18.826 L 17.371 19.302 L 17.373 18.541 L 16.629 18.374 L 17.227 17.901 L 16.894 17.216 L 17.637 17.388 Z M 14.903 9.42 L 15.232 10.106 L 15.976 9.935 L 15.643 10.619 L 16.241 11.092 L 15.497 11.26 L 15.498 12.02 L 14.903 11.544 L 14.308 12.02 L 14.31 11.26 L 13.565 11.092 L 14.163 10.619 L 13.83 9.935 L 14.574 10.106 Z M 17.966 5.259 L 18.296 5.945 L 19.039 5.774 L 18.706 6.459 L 19.304 6.931 L 18.56 7.099 L 18.562 7.859 L 17.966 7.383 L 17.371 7.859 L 17.373 7.099 L 16.629 6.931 L 17.226 6.459 L 16.894 5.774 L 17.637 5.945 Z M 20.642 8.38 L 20.972 9.066 L 21.715 8.895 L 21.382 9.579 L 21.98 10.052 L 21.236 10.219 L 21.238 10.98 L 20.642 10.504 L 20.047 10.98 L 20.049 10.219 L 19.304 10.052 L 19.902 9.579 L 19.569 8.895 L 20.313 9.066 Z M 18.729 12.02 L 18.988 12.815 L 19.826 12.815 L 19.148 13.306 L 19.407 14.101 L 18.729 13.61 L 18.051 14.101 L 18.31 13.306 L 17.632 12.815 L 18.47 12.815 Z" fill="rgb(240,240,240)"></path></svg>