<svg xmlns="http://www.w3.org/2000/svg" viewBox="0 0 320 320"><g><circle cx="160" cy="160" r="160" fill="#f0f0f0"/><path fill="#d80027" d="M320 160c0-63.43-36.92-118.24-90.43-144.12v288.25C283.09 278.25 320 223.44 320 160.01ZM0 160c0 63.43 36.92 118.24 90.43 144.12V15.88C36.91 41.76 0 96.57 0 160Zm187.83 20.87 27.82-13.91-13.91-6.96v-13.91L173.91 160l13.92-27.83h-13.92L160 111.3l-13.91 20.87h-13.92L146.09 160l-27.83-13.91V160l-13.91 6.96 27.82 13.91-6.95 13.91h27.82v20.87h13.92v-20.87h27.82l-6.95-13.91z"/></g></svg>