<svg xmlns="http://www.w3.org/2000/svg" width="24" height="24"><path d="M 0.075 12.02 C 0.075 5.414 5.422 0.058 12.018 0.058 C 18.614 0.058 23.961 5.414 23.961 12.02 C 23.961 18.627 18.614 23.983 12.018 23.983 C 5.422 23.983 0.075 18.627 0.075 12.02 Z" fill="rgb(240,240,240)"></path><path d="M 11.498 12.02 L 23.961 12.02 C 23.961 10.941 23.817 9.895 23.549 8.9 L 11.498 8.9 Z M 11.498 5.779 L 22.208 5.779 C 21.477 4.586 20.545 3.53 19.452 2.658 L 11.498 2.658 Z M 12.018 23.983 C 14.828 23.983 17.412 23.01 19.452 21.382 L 4.583 21.382 C 6.623 23.01 9.207 23.983 12.018 23.983 Z M 1.828 18.262 L 22.208 18.262 C 22.802 17.291 23.254 16.24 23.549 15.141 L 0.486 15.141 C 0.782 16.24 1.234 17.291 1.828 18.262 Z" fill="rgb(216,0,39)"></path><path d="M 5.607 1.926 L 6.695 1.926 L 5.683 2.663 L 6.07 3.855 L 5.057 3.118 L 4.045 3.855 L 4.379 2.825 C 3.486 3.57 2.706 4.441 2.062 5.411 L 2.411 5.411 L 1.767 5.88 C 1.666 6.048 1.57 6.218 1.478 6.391 L 1.786 7.339 L 1.212 6.921 C 1.068 7.225 0.938 7.535 0.821 7.85 L 1.16 8.895 L 2.411 8.895 L 1.399 9.632 L 1.786 10.824 L 0.773 10.087 L 0.167 10.529 C 0.105 11.024 0.075 11.522 0.075 12.02 L 12.018 12.02 L 12.018 0.058 C 9.658 0.058 7.459 0.743 5.607 1.926 Z M 6.07 10.824 L 5.057 10.087 L 4.045 10.824 L 4.432 9.632 L 3.419 8.895 L 4.671 8.895 L 5.057 7.703 L 5.444 8.895 L 6.695 8.895 L 5.683 9.632 Z M 5.683 6.147 L 6.07 7.339 L 5.057 6.603 L 4.045 7.339 L 4.432 6.147 L 3.419 5.411 L 4.671 5.411 L 5.057 4.219 L 5.444 5.411 L 6.695 5.411 Z M 10.354 10.824 L 9.341 10.087 L 8.329 10.824 L 8.716 9.632 L 7.703 8.895 L 8.955 8.895 L 9.341 7.703 L 9.728 8.895 L 10.979 8.895 L 9.967 9.632 Z M 9.967 6.147 L 10.353 7.339 L 9.341 6.603 L 8.329 7.339 L 8.716 6.147 L 7.703 5.411 L 8.955 5.411 L 9.341 4.219 L 9.728 5.411 L 10.979 5.411 Z M 9.967 2.663 L 10.353 3.855 L 9.341 3.118 L 8.329 3.855 L 8.716 2.663 L 7.703 1.926 L 8.955 1.926 L 9.341 0.734 L 9.728 1.926 L 10.979 1.926 Z" fill="rgb(0,82,180)"></path></svg>