<svg xmlns="http://www.w3.org/2000/svg" width="155" height="44"><g transform="translate(0.001 0)"><path d="M 22.342 38.095 C 22.51 38.037 22.674 37.976 22.839 37.913 L 22.839 44.035 C 22.674 44.043 22.508 44.049 22.342 44.053 C 22.178 44.057 22.012 44.059 21.846 44.059 C 21.68 44.059 21.514 44.057 21.349 44.053 C 21.183 44.049 21.017 44.043 20.853 44.035 L 20.853 38.536 C 21.019 38.496 21.185 38.453 21.349 38.407 L 21.349 33.969 C 21.514 33.976 21.68 33.981 21.846 33.981 C 22.012 33.981 22.178 33.976 22.342 33.969 L 22.342 38.096 Z M 25.392 33.436 C 25.234 33.486 25.074 33.53 24.914 33.574 C 24.754 33.617 24.593 33.656 24.431 33.691 L 25.246 36.762 C 25.098 36.848 24.949 36.93 24.797 37.011 L 26.533 43.547 C 26.857 43.476 27.18 43.397 27.5 43.31 C 27.66 43.267 27.82 43.223 27.978 43.175 C 28.137 43.128 28.296 43.08 28.453 43.03 L 26.561 35.91 C 26.418 36.013 26.272 36.111 26.126 36.21 L 25.389 33.435 Z M 28.196 32.119 C 28.057 32.208 27.915 32.295 27.772 32.379 C 27.628 32.463 27.484 32.544 27.336 32.621 L 28.37 34.427 C 28.247 34.544 28.121 34.659 27.994 34.772 L 31.899 41.593 C 32.047 41.517 32.193 41.438 32.339 41.357 C 32.484 41.276 32.628 41.195 32.772 41.112 C 32.915 41.028 33.059 40.943 33.199 40.857 C 33.341 40.77 33.482 40.681 33.621 40.591 L 29.451 33.308 C 29.336 33.439 29.218 33.568 29.099 33.695 L 28.197 32.119 Z M 30.569 30.118 C 30.457 30.241 30.343 30.363 30.226 30.481 C 30.109 30.599 29.988 30.714 29.866 30.827 L 30.715 31.683 C 30.62 31.822 30.522 31.959 30.422 32.096 L 36.574 38.299 C 36.695 38.187 36.817 38.072 36.936 37.957 C 37.055 37.843 37.175 37.725 37.292 37.608 C 37.41 37.489 37.525 37.37 37.639 37.249 C 37.754 37.129 37.867 37.006 37.978 36.882 L 31.525 30.375 C 31.44 30.525 31.355 30.674 31.266 30.823 L 30.568 30.118 Z M 32.348 27.566 C 32.27 27.715 32.191 27.86 32.108 28.005 C 32.025 28.149 31.94 28.292 31.85 28.433 L 32.34 28.717 C 32.274 28.871 32.206 29.025 32.136 29.178 L 40.25 33.902 C 40.34 33.761 40.427 33.62 40.514 33.476 C 40.6 33.333 40.684 33.19 40.767 33.046 C 40.85 32.901 40.932 32.756 41.011 32.61 C 41.09 32.464 41.169 32.316 41.245 32.167 L 32.873 27.292 C 32.82 27.454 32.766 27.615 32.709 27.775 L 32.349 27.566 Z M 33.411 24.636 C 33.375 24.799 33.336 24.963 33.293 25.123 C 33.25 25.285 33.206 25.446 33.156 25.605 L 33.313 25.647 C 33.278 25.81 33.241 25.973 33.201 26.135 L 42.673 28.694 C 42.723 28.535 42.771 28.376 42.818 28.215 C 42.865 28.055 42.909 27.894 42.952 27.732 C 43.038 27.409 43.116 27.084 43.186 26.758 L 33.566 24.158 C 33.545 24.325 33.522 24.491 33.496 24.658 L 33.411 24.635 Z M 43.685 21.529 C 43.681 21.362 43.676 21.194 43.668 21.028 L 33.666 21.028 C 33.676 21.194 33.684 21.362 33.689 21.529 L 33.684 21.529 C 33.686 21.609 33.69 21.688 33.692 21.769 C 33.697 21.944 33.697 22.118 33.692 22.293 L 33.684 22.533 L 33.689 22.533 C 33.684 22.7 33.677 22.868 33.666 23.034 L 43.668 23.034 C 43.676 22.868 43.681 22.7 43.685 22.533 C 43.689 22.367 43.692 22.2 43.692 22.032 C 43.692 21.865 43.689 21.698 43.685 21.532 Z M 33.156 18.454 C 33.206 18.614 33.25 18.774 33.293 18.936 C 33.336 19.097 33.375 19.26 33.411 19.423 L 33.496 19.4 C 33.522 19.567 33.545 19.733 33.566 19.9 L 43.186 17.3 C 43.116 16.974 43.038 16.649 42.952 16.326 C 42.909 16.164 42.865 16.003 42.818 15.843 C 42.771 15.683 42.723 15.523 42.673 15.364 L 33.201 17.923 C 33.241 18.085 33.278 18.248 33.313 18.411 L 33.156 18.453 Z M 31.85 15.627 C 31.938 15.767 32.025 15.91 32.108 16.055 C 32.191 16.199 32.272 16.345 32.348 16.493 L 32.708 16.284 C 32.766 16.443 32.819 16.605 32.871 16.767 L 41.245 11.892 C 41.169 11.744 41.091 11.597 41.011 11.449 C 40.852 11.157 40.686 10.868 40.514 10.583 C 40.428 10.44 40.34 10.298 40.25 10.158 L 32.136 14.882 C 32.206 15.034 32.274 15.187 32.34 15.342 Z M 29.866 13.234 C 29.988 13.347 30.109 13.462 30.226 13.579 C 30.344 13.697 30.457 13.82 30.569 13.942 L 31.268 13.238 C 31.356 13.385 31.442 13.535 31.526 13.686 L 37.979 7.179 C 37.867 7.056 37.754 6.933 37.64 6.812 C 37.527 6.692 37.41 6.572 37.294 6.453 C 37.176 6.335 37.058 6.218 36.938 6.103 C 36.819 5.987 36.697 5.874 36.575 5.762 L 30.423 11.965 C 30.522 12.101 30.62 12.239 30.716 12.378 L 29.868 13.234 Z M 27.335 11.439 C 27.482 11.517 27.627 11.597 27.77 11.68 C 27.913 11.764 28.055 11.85 28.194 11.941 L 29.097 10.364 C 29.216 10.491 29.334 10.621 29.449 10.752 L 33.618 3.469 C 33.479 3.378 33.338 3.291 33.197 3.203 C 33.055 3.116 32.913 3.031 32.77 2.948 C 32.626 2.864 32.482 2.783 32.337 2.702 C 32.193 2.622 32.045 2.543 31.898 2.466 L 27.992 9.287 C 28.12 9.401 28.245 9.515 28.368 9.633 Z M 24.429 10.367 C 24.591 10.403 24.753 10.443 24.912 10.484 C 25.073 10.528 25.232 10.572 25.39 10.622 L 26.128 7.847 C 26.274 7.944 26.42 8.044 26.563 8.147 L 28.454 1.027 C 28.296 0.977 28.138 0.929 27.979 0.881 C 27.661 0.787 27.341 0.701 27.019 0.622 C 26.859 0.583 26.697 0.545 26.535 0.509 L 24.799 7.044 C 24.949 7.125 25.098 7.209 25.247 7.294 L 24.432 10.364 Z M 21.348 10.092 C 21.513 10.085 21.679 10.08 21.845 10.08 C 22.011 10.08 22.177 10.085 22.341 10.092 L 22.341 5.964 C 22.508 6.022 22.673 6.083 22.838 6.147 L 22.838 0.024 C 22.673 0.016 22.507 0.011 22.341 0.007 C 22.177 0.003 22.011 0 21.845 0 C 21.679 0 21.513 0.003 21.348 0.007 C 21.182 0.011 21.016 0.016 20.851 0.024 L 20.851 5.523 C 21.017 5.563 21.183 5.607 21.348 5.653 L 21.348 10.09 Z M 18.299 10.623 C 18.457 10.573 18.616 10.529 18.777 10.486 C 18.936 10.443 19.098 10.403 19.26 10.368 L 17.853 5.072 C 18.028 5.083 18.204 5.096 18.378 5.111 L 17.156 0.513 C 16.994 0.549 16.832 0.586 16.671 0.626 C 16.511 0.665 16.35 0.707 16.189 0.75 C 16.029 0.794 15.869 0.838 15.711 0.885 C 15.552 0.933 15.394 0.981 15.236 1.031 L 16.304 5.052 C 16.474 5.047 16.644 5.042 16.816 5.042 L 18.299 10.626 Z M 15.495 11.941 C 15.634 11.852 15.776 11.764 15.919 11.68 C 16.062 11.597 16.207 11.516 16.354 11.439 L 12.951 5.496 C 13.12 5.455 13.289 5.418 13.46 5.383 L 11.791 2.467 C 11.644 2.544 11.498 2.622 11.352 2.703 C 11.062 2.864 10.775 3.031 10.493 3.204 C 10.351 3.291 10.21 3.38 10.071 3.47 L 11.475 5.922 C 11.636 5.868 11.798 5.817 11.96 5.767 L 15.495 11.942 Z M 13.121 13.941 C 13.234 13.818 13.348 13.697 13.464 13.578 C 13.582 13.459 13.702 13.346 13.824 13.232 L 8.127 7.488 C 8.273 7.399 8.422 7.313 8.572 7.228 L 7.117 5.76 C 6.995 5.874 6.873 5.987 6.753 6.102 C 6.634 6.217 6.515 6.334 6.397 6.452 C 6.279 6.569 6.164 6.689 6.05 6.811 C 5.935 6.931 5.823 7.053 5.711 7.178 L 6.867 8.342 C 7.002 8.243 7.138 8.144 7.276 8.047 Z M 11.343 16.493 C 11.42 16.345 11.499 16.199 11.582 16.055 C 11.665 15.91 11.751 15.767 11.841 15.627 L 3.987 11.055 C 4.097 10.926 4.207 10.798 4.321 10.671 L 3.441 10.158 C 3.352 10.298 3.265 10.44 3.178 10.583 C 3.092 10.726 3.008 10.869 2.925 11.013 C 2.842 11.158 2.761 11.304 2.681 11.449 C 2.602 11.595 2.523 11.744 2.447 11.892 L 3.068 12.254 C 3.164 12.116 3.262 11.98 3.361 11.846 L 11.344 16.493 Z M 10.28 19.423 C 10.316 19.26 10.355 19.097 10.396 18.936 C 10.439 18.774 10.483 18.614 10.533 18.454 L 1.124 15.913 C 1.185 15.756 1.246 15.6 1.31 15.445 L 1.016 15.365 C 0.966 15.524 0.918 15.684 0.871 15.844 C 0.825 16.005 0.78 16.165 0.738 16.327 C 0.695 16.488 0.655 16.65 0.614 16.813 C 0.576 16.975 0.538 17.138 0.502 17.302 L 0.647 17.341 C 0.692 17.18 0.74 17.02 0.791 16.862 L 10.277 19.425 Z M 10.007 22.53 C 10 22.364 9.995 22.197 9.995 22.03 C 9.995 21.862 10 21.695 10.007 21.529 L 0.005 21.529 L 0.005 21.591 C 0.003 21.737 0 21.883 0 22.03 C 0 22.177 0.003 22.323 0.005 22.468 L 0.005 22.53 Z M 10.534 25.605 C 10.485 25.446 10.44 25.285 10.398 25.123 C 10.355 24.963 10.317 24.799 10.281 24.636 L 0.794 27.199 C 0.743 27.04 0.695 26.88 0.649 26.72 L 0.505 26.759 C 0.541 26.922 0.577 27.086 0.617 27.248 C 0.656 27.41 0.697 27.572 0.74 27.733 C 0.783 27.895 0.827 28.056 0.874 28.217 C 0.921 28.377 0.969 28.537 1.019 28.696 L 1.313 28.616 C 1.249 28.461 1.187 28.306 1.127 28.148 L 10.535 25.606 Z M 11.841 28.433 C 11.752 28.292 11.665 28.149 11.582 28.005 C 11.499 27.86 11.419 27.715 11.343 27.566 L 3.36 32.213 C 3.259 32.08 3.162 31.943 3.067 31.806 L 2.445 32.167 C 2.522 32.316 2.599 32.463 2.68 32.61 C 2.839 32.902 3.004 33.191 3.176 33.476 C 3.262 33.62 3.35 33.761 3.44 33.902 L 4.319 33.389 C 4.207 33.262 4.096 33.134 3.986 33.004 L 11.839 28.433 Z M 13.824 30.826 C 13.702 30.712 13.582 30.598 13.464 30.48 C 13.346 30.363 13.234 30.24 13.121 30.117 L 7.276 36.011 C 7.138 35.915 7.002 35.817 6.867 35.716 L 5.711 36.88 C 5.824 37.003 5.936 37.126 6.05 37.247 C 6.164 37.368 6.28 37.488 6.397 37.607 C 6.513 37.724 6.632 37.841 6.753 37.956 C 6.872 38.072 6.994 38.186 7.116 38.298 L 8.571 36.83 C 8.422 36.745 8.273 36.659 8.126 36.57 L 13.823 30.826 Z M 16.355 32.621 C 16.208 32.542 16.064 32.463 15.92 32.379 C 15.777 32.295 15.635 32.209 15.496 32.119 L 11.961 38.293 C 11.799 38.244 11.637 38.192 11.476 38.138 L 10.072 40.591 C 10.212 40.681 10.352 40.769 10.494 40.857 C 10.636 40.943 10.778 41.028 10.921 41.112 C 11.064 41.195 11.209 41.276 11.353 41.357 C 11.498 41.437 11.645 41.517 11.792 41.593 L 13.461 38.678 C 13.291 38.643 13.121 38.605 12.953 38.565 L 16.355 32.622 Z M 19.261 33.692 C 19.099 33.656 18.937 33.617 18.778 33.575 C 18.617 33.532 18.458 33.487 18.3 33.437 L 16.817 39.021 C 16.646 39.021 16.476 39.017 16.306 39.012 L 15.238 43.032 C 15.396 43.082 15.554 43.131 15.713 43.178 C 16.19 43.319 16.672 43.443 17.157 43.549 L 18.379 38.951 C 18.205 38.967 18.03 38.98 17.854 38.99 L 19.261 33.694 Z M 21.996 22.597 L 21.993 22.588 M 21.588 22.997 L 21.637 22.808 M 21.693 22.597 L 21.696 22.588" fill="rgb(35,31,32)"></path><path d="M 91.814 9.071 L 82.438 9.071 L 82.438 20.179 L 77.143 20.179 L 77.143 23.88 L 82.438 23.88 L 82.438 32.345 L 86.896 32.345 L 86.896 13.038 L 92.305 13.038 C 94.83 13.038 96.338 14.361 96.338 16.608 C 96.338 18.624 94.83 20.178 92.305 20.178 L 89.83 20.178 L 89.83 23.88 L 92.339 23.88 C 97.781 23.88 100.797 20.442 100.797 16.474 C 100.797 12.506 98.306 9.069 91.814 9.069 Z M 65.329 8.807 C 71.853 8.807 75.033 12.94 75.755 17.005 L 71.328 17.005 C 70.607 14.724 68.935 12.773 65.394 12.773 C 60.674 12.773 58.181 16.311 58.181 20.707 C 58.181 25.103 60.542 28.64 65.23 28.64 C 68.573 28.64 70.442 26.458 71.131 23.88 L 65.526 23.88 L 65.526 20.178 L 75.755 20.178 L 75.755 32.344 L 71.165 32.344 L 71.165 30.823 C 71.165 30.063 71.296 29.368 71.755 28.244 L 71.984 27.682 L 71.197 27.682 L 71 28.079 C 70.05 29.997 68.213 32.609 64.345 32.609 C 57.69 32.609 53.723 27.287 53.723 20.707 C 53.723 14.127 57.788 8.805 65.329 8.805 Z" fill="rgb(35,31,32)"></path><path d="M 119.271 8.985 C 125.739 8.985 128.891 13.081 129.603 17.109 L 125.217 17.109 C 124.501 14.848 122.844 12.915 119.334 12.915 C 114.657 12.915 112.184 16.42 112.184 20.78 C 112.184 25.139 114.522 28.645 119.169 28.645 C 122.486 28.645 124.336 26.482 125.017 23.927 L 119.46 23.927 L 119.46 20.256 L 129.598 20.256 L 129.598 32.314 L 125.047 32.314 L 125.047 30.807 C 125.047 30.055 125.178 29.367 125.633 28.253 L 125.861 27.697 L 125.08 27.697 L 124.886 28.093 C 123.942 29.992 122.125 32.579 118.291 32.579 C 111.696 32.579 107.765 27.302 107.765 20.784 C 107.765 14.266 111.794 8.989 119.268 8.989 L 119.268 8.985 Z M 132.659 13.265 L 132.659 9.071 L 136.818 9.071 L 136.818 13.265 Z M 132.659 32.312 L 132.659 15.01 L 136.818 15.01 L 136.818 32.312 Z M 145.068 22.123 C 148.123 21.957 150.82 22.255 150.786 20.649 C 150.753 19.468 150.298 18.159 147.344 18.159 C 144.39 18.159 143.673 19.369 143.446 20.78 L 139.35 20.78 C 139.935 16.42 143.639 14.751 147.474 14.751 C 151.308 14.751 154.949 16.06 154.949 22.746 L 154.949 32.314 L 150.79 32.314 L 150.79 31.104 C 150.79 30.22 151.051 29.693 151.667 28.418 L 150.887 28.418 C 149.749 31.235 147.962 32.578 144.81 32.578 C 141.658 32.578 138.831 30.479 138.831 27.563 C 138.831 23.73 141.624 22.32 145.071 22.124 L 145.068 22.12 Z M 145.784 24.906 C 143.997 25.102 142.991 25.79 142.991 27.331 C 142.991 28.771 144.356 29.689 146.273 29.43 C 148.481 29.137 150.757 27.692 150.79 23.401 C 149.817 24.481 148.257 24.645 145.784 24.909 L 145.784 24.905 Z" fill="rgb(0,0,0)"></path></g></svg>