<?xml version="1.0" encoding="UTF-8"?>
<svg id="Layer_2" data-name="Layer 2" xmlns="http://www.w3.org/2000/svg" viewBox="0 0 1157.63 326.44">
  <defs>
    <style>
      .cls-1, .cls-2 {
        stroke-width: 0px;
      }

      .cls-2 {
        fill: #231f20;
      }
    </style>
  </defs>
  <g id="Layer_1-2" data-name="Layer 1">
    <g>
      <path class="cls-2" d="m166.93,282.25c1.25-.43,2.48-.88,3.71-1.35v45.36c-1.23.06-2.47.1-3.71.13-1.23.03-2.47.05-3.71.05s-2.48-.02-3.71-.05c-1.24-.03-2.48-.07-3.71-.13v-40.74c1.24-.3,2.48-.62,3.71-.96v-32.88c1.23.05,2.47.09,3.71.09s2.48-.04,3.71-.09v30.58Zm22.78-34.52c-1.18.37-2.37.7-3.57,1.02-1.19.32-2.4.61-3.61.87l6.09,22.75c-1.1.64-2.22,1.25-3.35,1.85l12.97,48.42c1.21-.26,2.42-.54,3.62-.83,1.2-.29,2.4-.6,3.6-.92,1.2-.32,2.39-.65,3.57-1,1.19-.35,2.38-.71,3.55-1.08l-14.13-52.75c-1.07.76-2.16,1.49-3.25,2.22l-5.51-20.56Zm20.95-9.76c-1.04.66-2.1,1.31-3.17,1.93-1.07.62-2.15,1.22-3.25,1.79l7.72,13.38c-.92.87-1.86,1.72-2.81,2.56l29.18,50.54c1.1-.57,2.19-1.15,3.28-1.75,1.09-.6,2.16-1.2,3.24-1.82,1.07-.62,2.14-1.25,3.19-1.89,1.06-.64,2.11-1.3,3.15-1.97l-31.15-53.96c-.86.97-1.74,1.93-2.63,2.87l-6.74-11.68Zm17.73-14.82c-.84.91-1.69,1.81-2.56,2.69-.88.87-1.78,1.72-2.69,2.56l6.34,6.34c-.71,1.03-1.44,2.05-2.19,3.06l45.96,45.96c.91-.83,1.82-1.68,2.71-2.53.89-.85,1.78-1.72,2.66-2.59.88-.88,1.74-1.76,2.59-2.66.86-.89,1.7-1.8,2.53-2.72l-48.21-48.21c-.63,1.11-1.27,2.22-1.93,3.32l-5.22-5.22Zm13.29-18.91c-.58,1.1-1.17,2.18-1.79,3.25-.62,1.07-1.26,2.13-1.93,3.17l3.66,2.11c-.49,1.14-1,2.28-1.52,3.41l60.62,35c.67-1.04,1.32-2.09,1.97-3.15.64-1.06,1.27-2.12,1.89-3.19.62-1.07,1.23-2.15,1.82-3.23.59-1.08,1.18-2.18,1.75-3.28l-62.55-36.12c-.39,1.2-.8,2.39-1.22,3.58l-2.69-1.55Zm7.94-21.71c-.27,1.21-.56,2.42-.88,3.61-.32,1.2-.65,2.39-1.02,3.57l1.17.31c-.26,1.21-.54,2.42-.84,3.62l70.77,18.96c.37-1.18.73-2.36,1.08-3.55.35-1.19.68-2.38,1-3.58.32-1.19.62-2.39.92-3.6.29-1.2.57-2.41.83-3.62l-71.87-19.26c-.15,1.24-.33,2.47-.52,3.7l-.64-.17Zm76.76-23.02c-.03-1.24-.07-2.48-.13-3.71h-74.72c.07,1.23.13,2.47.17,3.71h-.04c.02.59.05,1.18.06,1.78.02.64.03,1.29.03,1.94s-.01,1.29-.03,1.94c-.02.59-.04,1.18-.06,1.78h.04c-.04,1.24-.09,2.48-.17,3.71h74.72c.06-1.23.1-2.47.13-3.71.03-1.23.05-2.47.05-3.71s-.02-2.48-.05-3.71Zm-78.66-22.78c.37,1.18.7,2.37,1.02,3.57.32,1.19.61,2.4.88,3.61l.64-.17c.19,1.23.36,2.46.52,3.7l71.87-19.26c-.26-1.21-.54-2.42-.83-3.62-.29-1.2-.6-2.4-.92-3.6-.32-1.2-.65-2.39-1-3.58-.35-1.19-.71-2.37-1.08-3.55l-70.77,18.96c.3,1.2.58,2.41.84,3.62l-1.17.31Zm-9.76-20.95c.66,1.04,1.31,2.1,1.93,3.17.62,1.07,1.22,2.15,1.79,3.25l2.69-1.55c.43,1.18.83,2.38,1.22,3.58l62.56-36.12c-.57-1.1-1.15-2.19-1.75-3.28-.6-1.09-1.2-2.16-1.82-3.23-.62-1.07-1.25-2.14-1.89-3.19-.64-1.06-1.3-2.11-1.97-3.15l-60.62,35c.52,1.13,1.03,2.26,1.52,3.41l-3.66,2.11Zm-14.82-17.73c.91.84,1.81,1.69,2.69,2.56s1.72,1.78,2.56,2.69l5.22-5.22c.66,1.09,1.3,2.2,1.93,3.32l48.21-48.21c-.84-.91-1.68-1.82-2.53-2.72-.85-.89-1.72-1.78-2.59-2.66-.88-.87-1.76-1.74-2.66-2.59-.89-.86-1.8-1.7-2.71-2.53l-45.96,45.96c.74,1.01,1.47,2.03,2.19,3.06l-6.34,6.34Zm-18.91-13.3c1.1.58,2.18,1.17,3.25,1.79,1.07.62,2.13,1.26,3.17,1.93l6.74-11.68c.89.94,1.77,1.9,2.63,2.87l31.15-53.96c-1.04-.67-2.09-1.32-3.15-1.97-1.06-.64-2.12-1.27-3.19-1.89-1.07-.62-2.15-1.22-3.23-1.82-1.08-.59-2.18-1.18-3.28-1.75l-29.18,50.54c.95.84,1.89,1.69,2.81,2.56l-7.72,13.38Zm-21.71-7.94c1.21.27,2.42.56,3.61.87,1.2.32,2.39.65,3.57,1.02l5.51-20.56c1.09.72,2.18,1.46,3.25,2.22l14.13-52.75c-1.18-.37-2.36-.73-3.55-1.08-1.19-.35-2.38-.68-3.57-1-1.19-.32-2.39-.62-3.6-.92-1.2-.29-2.41-.57-3.62-.84l-12.97,48.42c1.12.6,2.24,1.22,3.35,1.85l-6.09,22.75Zm-23.02-2.04c1.23-.05,2.47-.09,3.71-.09s2.48.04,3.71.09v-30.58c1.25.43,2.48.88,3.71,1.35V.18c-1.23-.06-2.47-.1-3.71-.13-1.23-.03-2.47-.05-3.71-.05s-2.48.02-3.71.05c-1.24.03-2.48.07-3.71.13v40.74c1.24.3,2.48.62,3.71.96v32.88Zm-22.78,3.94c1.18-.37,2.37-.7,3.57-1.02,1.19-.32,2.4-.61,3.61-.87l-10.51-39.24c1.31.08,2.62.18,3.92.29l-9.13-34.07c-1.21.27-2.42.54-3.62.84-1.2.29-2.4.6-3.6.92-1.2.32-2.39.65-3.57,1-1.19.35-2.37.71-3.55,1.08l7.98,29.79c1.27-.04,2.54-.07,3.82-.07l11.08,41.37Zm-20.95,9.76c1.04-.66,2.1-1.31,3.17-1.93,1.07-.62,2.15-1.22,3.25-1.79l-25.42-44.03c1.26-.3,2.52-.58,3.8-.84l-12.47-21.6c-1.1.57-2.19,1.15-3.28,1.75-1.09.6-2.16,1.2-3.23,1.82-1.07.62-2.14,1.25-3.19,1.89-1.06.64-2.11,1.3-3.15,1.97l10.49,18.17c1.2-.4,2.41-.78,3.62-1.15l26.41,45.75Zm-17.73,14.82c.84-.91,1.69-1.81,2.56-2.69.88-.88,1.78-1.72,2.69-2.56l-42.56-42.56c1.09-.66,2.2-1.3,3.32-1.93l-10.87-10.87c-.91.84-1.82,1.68-2.72,2.53-.89.85-1.78,1.72-2.66,2.59-.88.87-1.74,1.76-2.59,2.66-.86.89-1.7,1.8-2.53,2.72l8.63,8.63c1.01-.74,2.03-1.47,3.06-2.19l43.67,43.67Zm-13.29,18.91c.58-1.1,1.17-2.18,1.79-3.25.62-1.07,1.26-2.13,1.93-3.17l-58.67-33.87c.82-.96,1.64-1.91,2.49-2.85l-6.57-3.8c-.67,1.04-1.32,2.09-1.97,3.15-.64,1.06-1.27,2.12-1.89,3.19-.62,1.07-1.22,2.15-1.82,3.23-.59,1.08-1.18,2.18-1.75,3.28l4.64,2.68c.72-1.02,1.45-2.03,2.19-3.02l59.64,34.43Zm-7.94,21.71c.27-1.21.56-2.42.87-3.61.32-1.2.65-2.39,1.02-3.57L8.41,117.9c.45-1.16.91-2.32,1.39-3.47l-2.2-.59c-.37,1.18-.73,2.36-1.08,3.55-.35,1.19-.68,2.38-1,3.58-.32,1.19-.62,2.39-.92,3.6-.29,1.2-.57,2.41-.84,3.62l1.08.29c.34-1.19.7-2.38,1.08-3.55l70.87,18.99Zm-2.04,23.02c-.05-1.23-.09-2.47-.09-3.71s.04-2.48.09-3.71H.05s0,.31,0,.46c-.02,1.08-.04,2.16-.04,3.25s.02,2.17.04,3.25c0,.15,0,.46,0,.46h74.72Zm3.94,22.78c-.37-1.18-.7-2.37-1.02-3.57-.32-1.19-.6-2.4-.87-3.61L5.94,201.52c-.38-1.18-.74-2.36-1.08-3.55l-1.08.29c.27,1.21.54,2.42.84,3.62.29,1.2.6,2.4.92,3.6.32,1.2.65,2.39,1,3.58.35,1.19.71,2.37,1.08,3.55l2.2-.59c-.48-1.15-.94-2.3-1.39-3.47l70.29-18.83Zm9.76,20.95c-.66-1.04-1.31-2.1-1.93-3.17-.62-1.07-1.22-2.15-1.79-3.25l-59.64,34.43c-.75-.99-1.48-2-2.19-3.02l-4.64,2.68c.57,1.1,1.15,2.19,1.75,3.28.6,1.09,1.2,2.16,1.82,3.23.62,1.07,1.25,2.14,1.89,3.19.64,1.06,1.3,2.11,1.97,3.15l6.57-3.8c-.84-.94-1.67-1.89-2.49-2.85l58.67-33.87Zm14.82,17.73c-.91-.84-1.81-1.69-2.69-2.56s-1.72-1.78-2.56-2.69l-43.67,43.67c-1.03-.71-2.05-1.44-3.06-2.19l-8.63,8.63c.84.91,1.68,1.82,2.53,2.72.85.89,1.72,1.78,2.59,2.66.87.87,1.76,1.74,2.66,2.59.89.86,1.8,1.7,2.71,2.53l10.87-10.87c-1.11-.63-2.22-1.27-3.32-1.93l42.56-42.56Zm18.91,13.3c-1.1-.58-2.18-1.17-3.25-1.79-1.07-.62-2.13-1.26-3.17-1.93l-26.41,45.75c-1.21-.37-2.42-.75-3.62-1.15l-10.49,18.17c1.04.67,2.09,1.32,3.15,1.97,1.06.64,2.12,1.27,3.19,1.89,1.07.62,2.15,1.22,3.23,1.82,1.08.59,2.18,1.18,3.28,1.75l12.47-21.6c-1.27-.26-2.54-.54-3.8-.84l25.42-44.03Zm21.71,7.94c-1.21-.27-2.42-.56-3.61-.87-1.2-.32-2.39-.65-3.57-1.02l-11.08,41.37c-1.28,0-2.55-.03-3.82-.07l-7.98,29.79c1.18.37,2.36.73,3.55,1.08,1.19.35,2.38.68,3.57,1,1.19.32,2.39.62,3.6.92,1.2.29,2.41.57,3.62.83l9.13-34.07c-1.3.12-2.61.22-3.92.29l10.51-39.24Zm8.81-75.91h0m12.42-3.33h0m-.8-2.97l-.02-.06m-3.03,3.03h0m0,0l.37-1.4m.42-1.57l.02-.06"/>
      <g id="GP">
        <path class="cls-2" d="m685.95,67.21h-70.05v82.3h-39.56v27.42h39.56v62.72h33.31V96.6h40.41c18.86,0,30.13,9.8,30.13,26.45,0,14.94-11.27,26.45-30.13,26.45h-18.49v27.43h18.74c40.66,0,63.19-25.47,63.19-54.87s-18.61-54.87-67.11-54.87Z"/>
        <path class="cls-2" d="m488.08,65.25c48.74,0,72.5,30.62,77.89,60.74h-33.07c-5.39-16.9-17.88-31.35-44.33-31.35-35.27,0-53.89,26.21-53.89,58.78s17.64,58.78,52.66,58.78c24.98,0,38.94-16.17,44.09-35.27h-41.88v-27.43h76.42v90.14h-34.29v-11.27c0-5.63.98-10.78,4.41-19.11l1.71-4.16h-5.88l-1.47,2.94c-7.1,14.21-20.82,33.56-49.72,33.56-49.72,0-79.36-39.43-79.36-88.18s30.37-88.18,86.71-88.18Z"/>
      </g>
      <g id="Gia">
        <path class="cls-1" d="m891.08,66.57c48.32,0,71.87,30.35,77.19,60.19h-32.77c-5.35-16.75-17.73-31.07-43.95-31.07-34.94,0-53.42,25.97-53.42,58.27s17.47,58.27,52.19,58.27c24.78,0,38.6-16.02,43.69-34.95h-41.52v-27.2h75.74v89.34h-34v-11.17c0-5.57.98-10.67,4.38-18.92l1.7-4.12h-5.83l-1.45,2.93c-7.05,14.07-20.63,33.24-49.27,33.24-49.27,0-78.64-39.1-78.64-87.39s30.1-87.39,85.94-87.39v-.03Z"/>
        <path class="cls-1" d="m991.1,98.28v-31.07h31.07v31.07h-31.07Zm0,141.12V111.21h31.07v128.19h-31.07Z"/>
        <path class="cls-1" d="m1083.81,163.91c22.82-1.23,42.97.98,42.72-10.92-.25-8.75-3.65-18.45-25.72-18.45s-27.42,8.97-29.12,19.42h-30.6c4.37-32.3,32.04-44.67,60.69-44.67s55.85,9.7,55.85,59.24v70.89h-31.07v-8.97c0-6.55,1.95-10.45,6.55-19.9h-5.83c-8.5,20.87-21.85,30.82-45.4,30.82s-44.67-15.55-44.67-37.15c0-28.4,20.87-38.85,46.62-40.3l-.02-.03Zm5.35,20.62c-13.35,1.45-20.87,6.55-20.87,17.97,0,10.67,10.2,17.47,24.52,15.55,16.5-2.17,33.5-12.88,33.75-44.67-7.27,8-18.93,9.22-37.4,11.17v-.03Z"/>
      </g>
    </g>
  </g>
</svg>